<?xml version="1.0" encoding="UTF-8"?>
<!DOCTYPE svg PUBLIC "-//W3C//DTD SVG 1.1//EN" "http://www.w3.org/Graphics/SVG/1.1/DTD/svg11.dtd">
<svg xmlns="http://www.w3.org/2000/svg" version="1.1" width="80px" height="80px" style="shape-rendering:geometricPrecision; text-rendering:geometricPrecision; image-rendering:optimizeQuality; fill-rule:evenodd; clip-rule:evenodd" xmlns:xlink="http://www.w3.org/1999/xlink">
<g><path style="opacity:0.196" fill="#fbf9da" d="M 40.5,12.5 C 42.1316,12.8247 43.1316,13.8247 43.5,15.5C 41.8391,17.3347 40.3391,19.3347 39,21.5C 36.5197,20.0183 34.3531,18.185 32.5,16C 33.7147,13.2843 35.7147,11.4509 38.5,10.5C 39.7133,10.7472 40.38,11.4138 40.5,12.5 Z"/></g>
<g><path style="opacity:1" fill="#f7ee99" d="M 40.5,12.5 C 40.5,13.1667 40.5,13.8333 40.5,14.5C 38.5447,14.7986 37.2114,15.7986 36.5,17.5C 34.9153,16.9976 34.4153,15.9976 35,14.5C 36.3382,11.9177 38.1715,11.2511 40.5,12.5 Z"/></g>
<g><path style="opacity:1" fill="#f7ed88" d="M 40.5,14.5 C 41.0431,14.56 41.3764,14.8933 41.5,15.5C 40.5,16.8333 39.5,18.1667 38.5,19.5C 37.4777,19.1445 36.811,18.4778 36.5,17.5C 37.2114,15.7986 38.5447,14.7986 40.5,14.5 Z"/></g>
<g><path style="opacity:0.325" fill="#fbf9df" d="M 21.5,22.5 C 18.5,22.1667 17.1667,23.5 17.5,26.5C 15.7748,26.1575 15.2748,25.1575 16,23.5C 17.0616,22.1007 18.395,21.1007 20,20.5C 21.0299,20.8361 21.5299,21.5028 21.5,22.5 Z"/></g>
<g><path style="opacity:0.986" fill="#f8ee9f" d="M 21.5,22.5 C 21.8333,25.5 20.5,26.8333 17.5,26.5C 17.1667,23.5 18.5,22.1667 21.5,22.5 Z"/></g>
<g><path style="opacity:0.353" fill="#f9f6d2" d="M 60.5,26.5 C 60.6716,25.5084 60.3382,24.8417 59.5,24.5C 58.5967,22.3796 57.2633,22.0462 55.5,23.5C 55.1667,23.5 54.8333,23.5 54.5,23.5C 56.3978,19.7062 58.5645,19.7062 61,23.5C 61.7401,24.7494 61.5735,25.7494 60.5,26.5 Z"/></g>
<g><path style="opacity:0.145" fill="#f9f7d1" d="M 21.5,22.5 C 24.3416,25.3201 23.6749,27.3201 19.5,28.5C 18.4777,28.1445 17.811,27.4778 17.5,26.5C 20.5,26.8333 21.8333,25.5 21.5,22.5 Z"/></g>
<g><path style="opacity:1" fill="#f6ee92" d="M 59.5,24.5 C 57.5774,27.2178 56.244,26.8845 55.5,23.5C 57.2633,22.0462 58.5967,22.3796 59.5,24.5 Z"/></g>
<g><path style="opacity:0.251" fill="#f8f5c7" d="M 54.5,23.5 C 54.8333,23.5 55.1667,23.5 55.5,23.5C 56.244,26.8845 57.5774,27.2178 59.5,24.5C 60.3382,24.8417 60.6716,25.5084 60.5,26.5C 57.7046,29.1345 55.3713,28.6345 53.5,25C 53.5699,24.2352 53.9033,23.7352 54.5,23.5 Z"/></g>
<g><path style="opacity:0.737" fill="#eba098" d="M 40.5,36.5 C 40.5,36.1667 40.5,35.8333 40.5,35.5C 41.5,35.1667 42.1667,34.5 42.5,33.5C 43.7972,26.8207 41.1305,24.8207 34.5,27.5C 33.5386,29.2646 33.2053,31.2646 33.5,33.5C 33.5,34.1667 33.5,34.8333 33.5,35.5C 33.1667,35.5 32.8333,35.5 32.5,35.5C 32.6716,34.5084 32.3382,33.8417 31.5,33.5C 30.8277,26.6705 33.8277,23.8372 40.5,25C 44.2916,27.0527 45.4582,30.2194 44,34.5C 43.1841,35.8228 42.0174,36.4894 40.5,36.5 Z"/></g>
<g><path style="opacity:1" fill="#dc2f20" d="M 34.5,27.5 C 41.1305,24.8207 43.7972,26.8207 42.5,33.5C 41.8333,33.5 41.5,33.1667 41.5,32.5C 41.7678,30.901 41.4345,29.5676 40.5,28.5C 38.7354,27.5386 36.7354,27.2053 34.5,27.5 Z"/></g>
<g><path style="opacity:1" fill="#e72c1e" d="M 34.5,27.5 C 36.7354,27.2053 38.7354,27.5386 40.5,28.5C 35.7797,28.2254 35.4463,29.0588 39.5,31C 37.735,31.6397 36.0683,31.4731 34.5,30.5C 34.5,29.5 34.5,28.5 34.5,27.5 Z"/></g>
<g><path style="opacity:1" fill="#e32a21" d="M 40.5,28.5 C 41.4345,29.5676 41.7678,30.901 41.5,32.5C 38.6122,33.0102 36.2789,32.3435 34.5,30.5C 36.0683,31.4731 37.735,31.6397 39.5,31C 35.4463,29.0588 35.7797,28.2254 40.5,28.5 Z"/></g>
<g><path style="opacity:0.192" fill="#e6a197" d="M 52.5,30.5 C 52.5,31.1667 52.1667,31.5 51.5,31.5C 51.1667,31.5 50.8333,31.5 50.5,31.5C 48.8333,32.5 47.5,33.8333 46.5,35.5C 46.1667,35.5 45.8333,35.5 45.5,35.5C 46.7381,32.7547 48.5714,30.4214 51,28.5C 52.0299,28.8361 52.5299,29.5028 52.5,30.5 Z"/></g>
<g><path style="opacity:0.69" fill="#e29596" d="M 31.5,33.5 C 31.5,34.1667 31.5,34.8333 31.5,35.5C 29.8333,34.1667 28.1667,32.8333 26.5,31.5C 25.8333,31.5 25.1667,31.5 24.5,31.5C 24.5,30.5 24.5,29.5 24.5,28.5C 27.0561,29.7023 29.3894,31.369 31.5,33.5 Z"/></g>
<g><path style="opacity:1" fill="#d71f1c" d="M 34.5,27.5 C 34.5,28.5 34.5,29.5 34.5,30.5C 36.2789,32.3435 38.6122,33.0102 41.5,32.5C 41.5,33.1667 41.8333,33.5 42.5,33.5C 42.1667,34.5 41.5,35.1667 40.5,35.5C 37.812,35.8342 35.4786,35.1675 33.5,33.5C 33.2053,31.2646 33.5386,29.2646 34.5,27.5 Z"/></g>
<g><path style="opacity:0.137" fill="#f1cac8" d="M 24.5,32.5 C 24.5,32.1667 24.5,31.8333 24.5,31.5C 25.1667,31.5 25.8333,31.5 26.5,31.5C 26.6036,33.7028 27.2702,35.7028 28.5,37.5C 29.2341,38.7079 29.5674,40.0413 29.5,41.5C 29.1667,41.5 28.8333,41.5 28.5,41.5C 28.6716,40.5084 28.3382,39.8417 27.5,39.5C 27.5,39.1667 27.5,38.8333 27.5,38.5C 27.5,37.8333 27.1667,37.5 26.5,37.5C 25.8333,37.5 25.5,37.1667 25.5,36.5C 26.8333,36.1667 26.8333,35.8333 25.5,35.5C 25.5,35.1667 25.5,34.8333 25.5,34.5C 25.6716,33.5084 25.3382,32.8417 24.5,32.5 Z"/></g>
<g><path style="opacity:0.424" fill="#f4c7b2" d="M 50.5,31.5 C 50.8333,31.5 51.1667,31.5 51.5,31.5C 51.5,31.8333 51.5,32.1667 51.5,32.5C 51.5,33.1667 51.8333,33.5 52.5,33.5C 52.5,34.1667 52.5,34.8333 52.5,35.5C 52.1667,35.5 51.8333,35.5 51.5,35.5C 50.1667,35.8333 50.1667,36.1667 51.5,36.5C 51.6716,37.4916 51.3382,38.1583 50.5,38.5C 50.5,39.1667 50.5,39.8333 50.5,40.5C 50.1667,41.1667 49.8333,41.8333 49.5,42.5C 49.1667,42.5 48.8333,42.5 48.5,42.5C 48.5,41.8333 48.1667,41.5 47.5,41.5C 47.5,40.8333 47.5,40.1667 47.5,39.5C 48.8916,36.9933 49.8916,34.3267 50.5,31.5 Z"/></g>
<g><path style="opacity:0.863" fill="#6dbdde" d="M 19.5,36.5 C 19.5,37.1667 19.5,37.8333 19.5,38.5C 18.8333,38.1667 18.1667,37.8333 17.5,37.5C 15.312,36.3773 12.9787,36.3773 10.5,37.5C 13.0887,33.9783 16.0887,33.645 19.5,36.5 Z"/></g>
<g><path style="opacity:0.102" fill="#9fddef" d="M 24.5,31.5 C 24.5,31.8333 24.5,32.1667 24.5,32.5C 24.5,32.8333 24.5,33.1667 24.5,33.5C 23.8826,33.3893 23.3826,33.056 23,32.5C 22.5017,35.8168 22.335,39.1501 22.5,42.5C 22.5,43.1667 22.5,43.8333 22.5,44.5C 21.8333,44.8333 21.1667,45.1667 20.5,45.5C 20.6716,44.5084 20.3382,43.8417 19.5,43.5C 19.5,41.8333 19.5,40.1667 19.5,38.5C 19.5,37.8333 19.5,37.1667 19.5,36.5C 20.2216,36.9175 20.7216,37.5842 21,38.5C 21.1816,35.7737 21.6816,33.1071 22.5,30.5C 23.1835,30.8627 23.8501,31.1961 24.5,31.5 Z"/></g>
<g><path style="opacity:0.937" fill="#d56968" d="M 33.5,33.5 C 35.4786,35.1675 37.812,35.8342 40.5,35.5C 40.5,35.8333 40.5,36.1667 40.5,36.5C 39.0813,37.4511 37.4147,37.7845 35.5,37.5C 35.1583,36.6618 34.4916,36.3284 33.5,36.5C 33.5,36.1667 33.5,35.8333 33.5,35.5C 33.5,34.8333 33.5,34.1667 33.5,33.5 Z"/></g>
<g><path style="opacity:1" fill="#cf2f29" d="M 26.5,31.5 C 28.1667,32.8333 29.8333,34.1667 31.5,35.5C 31.8333,35.5 32.1667,35.5 32.5,35.5C 32.5,36.1667 32.8333,36.5 33.5,36.5C 33.5,36.8333 33.5,37.1667 33.5,37.5C 33.5,37.8333 33.5,38.1667 33.5,38.5C 32.8826,38.6107 32.3826,38.944 32,39.5C 31.7216,38.5842 31.2216,37.9175 30.5,37.5C 29.8333,37.5 29.1667,37.5 28.5,37.5C 27.2702,35.7028 26.6036,33.7028 26.5,31.5 Z"/></g>
<g><path style="opacity:0.745" fill="#f3cc56" d="M 52.5,32.5 C 54.4136,35.6843 55.0803,39.351 54.5,43.5C 53.8333,40.8333 53.1667,38.1667 52.5,35.5C 52.5,34.8333 52.5,34.1667 52.5,33.5C 52.5,33.1667 52.5,32.8333 52.5,32.5 Z"/></g>
<g><path style="opacity:0.999" fill="#149fda" d="M 15.5,37.5 C 15.3939,40.0786 16.0605,42.412 17.5,44.5C 15.2082,45.8458 13.2082,45.5124 11.5,43.5C 14.5131,42.6441 15.1797,40.8108 13.5,38C 14.0944,37.5357 14.7611,37.369 15.5,37.5 Z"/></g>
<g><path style="opacity:1" fill="#11a4df" d="M 15.5,37.5 C 16.1667,37.5 16.8333,37.5 17.5,37.5C 18.1667,37.8333 18.8333,38.1667 19.5,38.5C 19.5,40.1667 19.5,41.8333 19.5,43.5C 18.8333,43.8333 18.1667,44.1667 17.5,44.5C 16.0605,42.412 15.3939,40.0786 15.5,37.5 Z"/></g>
<g><path style="opacity:1" fill="#f4b93a" d="M 64.5,35.5 C 64.5,35.8333 64.5,36.1667 64.5,36.5C 63.1266,36.3433 61.7932,36.51 60.5,37C 62.3008,37.3173 62.6341,37.984 61.5,39C 62.3994,40.6516 63.3994,42.1516 64.5,43.5C 63.713,45.1042 62.3797,45.7709 60.5,45.5C 60.5,44.8333 60.1667,44.5 59.5,44.5C 56.9103,41.6167 56.9103,38.6167 59.5,35.5C 61.1667,34.1667 62.8333,34.1667 64.5,35.5 Z"/></g>
<g><path style="opacity:0.569" fill="#f7f3be" d="M 1.5,35.5 C 5.16124,35.3501 6.16124,36.8501 4.5,40C 1.27316,39.9444 0.27316,38.4444 1.5,35.5 Z"/></g>
<g><path style="opacity:0.647" fill="#55c1ea" d="M 24.5,33.5 C 24.5,34.1667 24.8333,34.5 25.5,34.5C 25.5,34.8333 25.5,35.1667 25.5,35.5C 25.5,35.8333 25.5,36.1667 25.5,36.5C 25.1667,36.5 24.8333,36.5 24.5,36.5C 23.7227,37.8822 23.056,39.8822 22.5,42.5C 22.335,39.1501 22.5017,35.8168 23,32.5C 23.3826,33.056 23.8826,33.3893 24.5,33.5 Z"/></g>
<g><path style="opacity:0.455" fill="#e38075" d="M 45.5,35.5 C 45.8333,35.5 46.1667,35.5 46.5,35.5C 45.4726,37.1942 44.1392,38.5275 42.5,39.5C 40.5648,40.1495 38.5648,40.4828 36.5,40.5C 35.7095,39.5987 34.7095,38.9321 33.5,38.5C 33.5,38.1667 33.5,37.8333 33.5,37.5C 34.1667,37.5 34.8333,37.5 35.5,37.5C 39.1363,39.0021 42.4697,38.3355 45.5,35.5 Z"/></g>
<g><path style="opacity:1" fill="#e33524" d="M 50.5,31.5 C 49.8916,34.3267 48.8916,36.9933 47.5,39.5C 45.9731,39.427 44.9731,40.0937 44.5,41.5C 43.1667,41.5 42.5,40.8333 42.5,39.5C 44.1392,38.5275 45.4726,37.1942 46.5,35.5C 47.5,33.8333 48.8333,32.5 50.5,31.5 Z"/></g>
<g><path style="opacity:0.024" fill="#f9edbb" d="M 52.5,30.5 C 53.9778,30.238 55.3112,30.5713 56.5,31.5C 55.4557,33.7676 55.289,36.1009 56,38.5C 56.4224,36.5743 57.5891,35.5743 59.5,35.5C 56.9103,38.6167 56.9103,41.6167 59.5,44.5C 59.5,44.8333 59.5,45.1667 59.5,45.5C 58.8333,45.5 58.5,45.8333 58.5,46.5C 58.1667,46.5 57.8333,46.5 57.5,46.5C 56.8333,46.5 56.5,46.1667 56.5,45.5C 57.8333,45.1667 57.8333,44.8333 56.5,44.5C 55.8333,44.1667 55.1667,43.8333 54.5,43.5C 55.0803,39.351 54.4136,35.6843 52.5,32.5C 52.1667,32.5 51.8333,32.5 51.5,32.5C 51.5,32.1667 51.5,31.8333 51.5,31.5C 52.1667,31.5 52.5,31.1667 52.5,30.5 Z"/></g>
<g><path style="opacity:1" fill="#f1a81f" d="M 64.5,36.5 C 67.0531,38.9621 67.0531,41.2955 64.5,43.5C 63.3994,42.1516 62.3994,40.6516 61.5,39C 62.6341,37.984 62.3008,37.3173 60.5,37C 61.7932,36.51 63.1266,36.3433 64.5,36.5 Z"/></g>
<g><path style="opacity:0.565" fill="#f9f2c5" d="M 71.5,35.5 C 76.8733,35.8105 77.54,37.4772 73.5,40.5C 70.6514,39.5846 69.9848,37.918 71.5,35.5 Z"/></g>
<g><path style="opacity:1" fill="#0b98d3" d="M 17.5,37.5 C 16.8333,37.5 16.1667,37.5 15.5,37.5C 14.7611,37.369 14.0944,37.5357 13.5,38C 15.1797,40.8108 14.5131,42.6441 11.5,43.5C 10.6586,41.6208 10.3253,39.6208 10.5,37.5C 12.9787,36.3773 15.312,36.3773 17.5,37.5 Z"/></g>
<g><path style="opacity:1" fill="#02a3e7" d="M 24.5,36.5 C 24.8333,39.1667 25.1667,41.8333 25.5,44.5C 24.8485,45.0906 24.1818,45.7573 23.5,46.5C 22.7025,46.0431 22.3691,45.3764 22.5,44.5C 22.5,43.8333 22.5,43.1667 22.5,42.5C 23.056,39.8822 23.7227,37.8822 24.5,36.5 Z"/></g>
<g><path style="opacity:1" fill="#d4312a" d="M 47.5,39.5 C 47.5,40.1667 47.5,40.8333 47.5,41.5C 46.6618,41.8417 46.3284,42.5084 46.5,43.5C 46.5,43.8333 46.5,44.1667 46.5,44.5C 45.6618,44.8417 45.3284,45.5084 45.5,46.5C 44.8333,46.8333 44.1667,47.1667 43.5,47.5C 43.5,45.8333 43.5,44.1667 43.5,42.5C 44.1667,42.5 44.5,42.1667 44.5,41.5C 44.9731,40.0937 45.9731,39.427 47.5,39.5 Z"/></g>
<g><path style="opacity:1" fill="#df483a" d="M 28.5,37.5 C 29.1667,37.5 29.8333,37.5 30.5,37.5C 30.5271,39.1993 31.1938,40.5326 32.5,41.5C 32.5,43.1667 32.5,44.8333 32.5,46.5C 32.1667,46.5 31.8333,46.5 31.5,46.5C 31.6716,45.5084 31.3382,44.8417 30.5,44.5C 30.5,44.1667 30.5,43.8333 30.5,43.5C 30.6716,42.5084 30.3382,41.8417 29.5,41.5C 29.5674,40.0413 29.2341,38.7079 28.5,37.5 Z"/></g>
<g><path style="opacity:1" fill="#e22b20" d="M 32.5,41.5 C 33.6049,42.6005 34.9382,43.2671 36.5,43.5C 36.1667,44.1667 35.8333,44.8333 35.5,45.5C 34.8333,46.1667 34.1667,46.8333 33.5,47.5C 32.8333,47.5 32.5,47.1667 32.5,46.5C 32.5,44.8333 32.5,43.1667 32.5,41.5 Z"/></g>
<g><path style="opacity:1" fill="#dc221e" d="M 30.5,37.5 C 31.2216,37.9175 31.7216,38.5842 32,39.5C 32.3826,38.944 32.8826,38.6107 33.5,38.5C 34.7095,38.9321 35.7095,39.5987 36.5,40.5C 35.4937,40.9377 35.4937,41.6043 36.5,42.5C 36.5,42.8333 36.5,43.1667 36.5,43.5C 34.9382,43.2671 33.6049,42.6005 32.5,41.5C 31.1938,40.5326 30.5271,39.1993 30.5,37.5 Z"/></g>
<g><path style="opacity:1" fill="#e3271d" d="M 42.5,39.5 C 42.5,40.8333 43.1667,41.5 44.5,41.5C 44.5,42.1667 44.1667,42.5 43.5,42.5C 43.1667,42.5 42.8333,42.5 42.5,42.5C 40.9557,42.7031 39.6223,43.3698 38.5,44.5C 37.8182,43.7573 37.1515,43.0906 36.5,42.5C 35.4937,41.6043 35.4937,40.9377 36.5,40.5C 38.5648,40.4828 40.5648,40.1495 42.5,39.5 Z"/></g>
<g><path style="opacity:1" fill="#e02721" d="M 36.5,42.5 C 37.1515,43.0906 37.8182,43.7573 38.5,44.5C 39.6223,43.3698 40.9557,42.7031 42.5,42.5C 41.6532,44.0291 40.9865,45.6958 40.5,47.5C 40.5195,48.7261 40.8529,49.7261 41.5,50.5C 41.3649,54.2745 39.6982,55.6078 36.5,54.5C 35.8902,53.609 35.5569,52.609 35.5,51.5C 36.2625,50.7321 37.2625,50.2321 38.5,50C 37.6006,48.3484 36.6006,46.8484 35.5,45.5C 35.8333,44.8333 36.1667,44.1667 36.5,43.5C 36.5,43.1667 36.5,42.8333 36.5,42.5 Z"/></g>
<g><path style="opacity:1" fill="#1899d3" d="M 24.5,36.5 C 24.8333,36.5 25.1667,36.5 25.5,36.5C 25.5,37.1667 25.8333,37.5 26.5,37.5C 26.5,37.8333 26.5,38.1667 26.5,38.5C 26.5111,40.5466 26.8444,42.5466 27.5,44.5C 26.7582,47.0828 26.0915,47.0828 25.5,44.5C 25.1667,41.8333 24.8333,39.1667 24.5,36.5 Z"/></g>
<g><path style="opacity:0.102" fill="#f9e7d0" d="M 47.5,41.5 C 48.1667,41.5 48.5,41.8333 48.5,42.5C 48.7373,43.791 48.404,44.791 47.5,45.5C 47.6716,44.5084 47.3382,43.8417 46.5,43.5C 46.3284,42.5084 46.6618,41.8417 47.5,41.5 Z"/></g>
<g><path style="opacity:0.196" fill="#f8e6ae" d="M 64.5,35.5 C 67.6142,37.8139 68.2809,40.8139 66.5,44.5C 65.9747,45.1924 65.3081,45.6924 64.5,46C 66.1124,46.7203 67.6124,46.5536 69,45.5C 70.7058,46.3079 71.5391,47.6412 71.5,49.5C 67.0761,50.5456 62.7428,51.879 58.5,53.5C 59.5903,52.1429 60.9236,51.1429 62.5,50.5C 63.609,50.4431 64.609,50.1098 65.5,49.5C 66.9217,49.2914 68.255,48.7914 69.5,48C 66.008,48.0704 63.008,47.2371 60.5,45.5C 62.3797,45.7709 63.713,45.1042 64.5,43.5C 67.0531,41.2955 67.0531,38.9621 64.5,36.5C 64.5,36.1667 64.5,35.8333 64.5,35.5 Z"/></g>
<g><path style="opacity:1" fill="#2da5da" d="M 26.5,38.5 C 26.8333,38.5 27.1667,38.5 27.5,38.5C 27.5,38.8333 27.5,39.1667 27.5,39.5C 27.3284,40.4916 27.6618,41.1583 28.5,41.5C 28.5,41.8333 28.5,42.1667 28.5,42.5C 28.2627,43.791 28.596,44.791 29.5,45.5C 29.2627,46.791 29.596,47.791 30.5,48.5C 30.8016,51.0593 30.4682,53.3926 29.5,55.5C 29.4729,53.8007 28.8062,52.4674 27.5,51.5C 27.8039,50.8501 28.1373,50.1835 28.5,49.5C 26.3635,48.2072 24.3635,48.2072 22.5,49.5C 21.5,49.5 20.5,49.5 19.5,49.5C 20.463,48.6365 20.463,47.9698 19.5,47.5C 16.6894,48.0796 14.0227,48.7463 11.5,49.5C 10.5266,49.0133 9.52656,48.5133 8.5,48C 8.72845,47.6012 9.06178,47.4346 9.5,47.5C 10.8333,47.5 12.1667,47.5 13.5,47.5C 14.1667,47.5 14.8333,47.5 15.5,47.5C 16.4916,47.6716 17.1583,47.3382 17.5,46.5C 18.4916,46.6716 19.1583,46.3382 19.5,45.5C 19.8333,45.5 20.1667,45.5 20.5,45.5C 21.1667,45.1667 21.8333,44.8333 22.5,44.5C 22.3691,45.3764 22.7025,46.0431 23.5,46.5C 24.1818,45.7573 24.8485,45.0906 25.5,44.5C 26.0915,47.0828 26.7582,47.0828 27.5,44.5C 26.8444,42.5466 26.5111,40.5466 26.5,38.5 Z"/></g>
<g><path style="opacity:0.22" fill="#cedade" d="M 29.5,41.5 C 30.3382,41.8417 30.6716,42.5084 30.5,43.5C 29.6618,43.8417 29.3284,44.5084 29.5,45.5C 28.596,44.791 28.2627,43.791 28.5,42.5C 29.1667,42.5 29.5,42.1667 29.5,41.5 Z"/></g>
<g><path style="opacity:1" fill="#dc201f" d="M 42.5,42.5 C 42.8333,42.5 43.1667,42.5 43.5,42.5C 43.5,44.1667 43.5,45.8333 43.5,47.5C 43.5,47.8333 43.5,48.1667 43.5,48.5C 42.8333,49.1667 42.1667,49.8333 41.5,50.5C 40.8529,49.7261 40.5195,48.7261 40.5,47.5C 40.9865,45.6958 41.6532,44.0291 42.5,42.5 Z"/></g>
<g><path style="opacity:1" fill="#f3af17" d="M 57.5,47.5 C 60.3303,47.9628 62.997,48.6295 65.5,49.5C 64.609,50.1098 63.609,50.4431 62.5,50.5C 62.1667,50.5 61.8333,50.5 61.5,50.5C 58.6965,49.3622 55.6965,49.1955 52.5,50C 51.944,50.3826 51.6107,50.8826 51.5,51.5C 50.5,51.5 49.5,51.5 48.5,51.5C 48.7038,48.4824 49.0371,45.4824 49.5,42.5C 49.8333,41.8333 50.1667,41.1667 50.5,40.5C 51.1174,40.3893 51.6174,40.056 52,39.5C 52.1858,41.9005 52.6858,44.2338 53.5,46.5C 54.7362,47.2458 56.0695,47.5792 57.5,47.5 Z"/></g>
<g><path style="opacity:1" fill="#df2e22" d="M 35.5,45.5 C 36.6006,46.8484 37.6006,48.3484 38.5,50C 37.2625,50.2321 36.2625,50.7321 35.5,51.5C 34.3263,50.4863 33.6596,49.153 33.5,47.5C 34.1667,46.8333 34.8333,46.1667 35.5,45.5 Z"/></g>
<g><path style="opacity:1" fill="#f2b721" d="M 51.5,35.5 C 51.8333,35.5 52.1667,35.5 52.5,35.5C 53.1667,38.1667 53.8333,40.8333 54.5,43.5C 55.1667,43.8333 55.8333,44.1667 56.5,44.5C 56.5,44.8333 56.5,45.1667 56.5,45.5C 56.5,46.1667 56.8333,46.5 57.5,46.5C 57.5,46.8333 57.5,47.1667 57.5,47.5C 56.0695,47.5792 54.7362,47.2458 53.5,46.5C 52.6858,44.2338 52.1858,41.9005 52,39.5C 51.6174,40.056 51.1174,40.3893 50.5,40.5C 50.5,39.8333 50.5,39.1667 50.5,38.5C 51.3382,38.1583 51.6716,37.4916 51.5,36.5C 51.5,36.1667 51.5,35.8333 51.5,35.5 Z"/></g>
<g><path style="opacity:0.024" fill="#ade3f0" d="M 10.5,37.5 C 10.3253,39.6208 10.6586,41.6208 11.5,43.5C 13.2082,45.5124 15.2082,45.8458 17.5,44.5C 18.1667,44.1667 18.8333,43.8333 19.5,43.5C 19.5,44.1667 19.5,44.8333 19.5,45.5C 18.5084,45.3284 17.8417,45.6618 17.5,46.5C 17.1583,47.3382 16.4916,47.6716 15.5,47.5C 14.8333,46.1667 14.1667,46.1667 13.5,47.5C 12.1667,47.5 10.8333,47.5 9.5,47.5C 9.5,47.1667 9.5,46.8333 9.5,46.5C 10.552,46.6495 11.552,46.4828 12.5,46C 11.3333,45.5 10.5,44.6667 10,43.5C 9.21086,41.2884 9.37753,39.2884 10.5,37.5 Z"/></g>
<g><path style="opacity:0.11" fill="#dfedf2" d="M 30.5,44.5 C 31.3382,44.8417 31.6716,45.5084 31.5,46.5C 30.6618,46.8417 30.3284,47.5084 30.5,48.5C 29.596,47.791 29.2627,46.791 29.5,45.5C 30.1667,45.5 30.5,45.1667 30.5,44.5 Z"/></g>
<g><path style="opacity:0.71" fill="#7ecce6" d="M 9.5,46.5 C 9.5,46.8333 9.5,47.1667 9.5,47.5C 9.06178,47.4346 8.72845,47.6012 8.5,48C 9.52656,48.5133 10.5266,49.0133 11.5,49.5C 12.391,50.1098 13.391,50.4431 14.5,50.5C 14.5,50.8333 14.5,51.1667 14.5,51.5C 11.0833,50.9554 8.08326,49.6221 5.5,47.5C 6.68884,46.5713 8.02218,46.238 9.5,46.5 Z"/></g>
<g><path style="opacity:0.755" fill="#eec962" d="M 59.5,44.5 C 60.1667,44.5 60.5,44.8333 60.5,45.5C 63.008,47.2371 66.008,48.0704 69.5,48C 68.255,48.7914 66.9217,49.2914 65.5,49.5C 62.997,48.6295 60.3303,47.9628 57.5,47.5C 57.5,47.1667 57.5,46.8333 57.5,46.5C 57.8333,46.5 58.1667,46.5 58.5,46.5C 59.1667,46.5 59.5,46.1667 59.5,45.5C 59.5,45.1667 59.5,44.8333 59.5,44.5 Z"/></g>
<g><path style="opacity:0.624" fill="#f1ddbf" d="M 79.5,45.5 C 79.5,46.5 79.5,47.5 79.5,48.5C 78.5,49.1667 77.5,49.8333 76.5,50.5C 76.1583,49.6618 75.4916,49.3284 74.5,49.5C 75.5794,47.457 77.246,46.1237 79.5,45.5 Z"/></g>
<g><path style="opacity:1" fill="#029cdb" d="M 19.5,49.5 C 17.7839,49.6287 16.1172,49.962 14.5,50.5C 13.391,50.4431 12.391,50.1098 11.5,49.5C 14.0227,48.7463 16.6894,48.0796 19.5,47.5C 20.463,47.9698 20.463,48.6365 19.5,49.5 Z"/></g>
<g><path style="opacity:1" fill="#01a4e5" d="M 27.5,51.5 C 25.7085,51.634 24.0418,51.3007 22.5,50.5C 22.5,50.1667 22.5,49.8333 22.5,49.5C 24.3635,48.2072 26.3635,48.2072 28.5,49.5C 28.1373,50.1835 27.8039,50.8501 27.5,51.5 Z"/></g>
<g><path style="opacity:0.286" fill="#f3c8c3" d="M 31.5,46.5 C 31.8333,46.5 32.1667,46.5 32.5,46.5C 32.5,47.1667 32.8333,47.5 33.5,47.5C 33.6596,49.153 34.3263,50.4863 35.5,51.5C 35.5569,52.609 35.8902,53.609 36.5,54.5C 36.5,54.8333 36.5,55.1667 36.5,55.5C 34.5879,53.3428 32.9213,51.0094 31.5,48.5C 31.5,47.8333 31.5,47.1667 31.5,46.5 Z"/></g>
<g><path style="opacity:1" fill="#20aae4" d="M 19.5,49.5 C 20.5,49.5 21.5,49.5 22.5,49.5C 22.5,49.8333 22.5,50.1667 22.5,50.5C 20.8212,50.2852 19.8212,50.9519 19.5,52.5C 18.5,52.5 17.5,52.5 16.5,52.5C 15.5084,52.6716 14.8417,52.3382 14.5,51.5C 14.5,51.1667 14.5,50.8333 14.5,50.5C 16.1172,49.962 17.7839,49.6287 19.5,49.5 Z"/></g>
<g><path style="opacity:1" fill="#f6b612" d="M 61.5,50.5 C 58.5448,51.1587 55.5448,51.4921 52.5,51.5C 52.1667,51.5 51.8333,51.5 51.5,51.5C 51.6107,50.8826 51.944,50.3826 52.5,50C 55.6965,49.1955 58.6965,49.3622 61.5,50.5 Z"/></g>
<g><path style="opacity:0.953" fill="#eec48d" d="M -0.5,46.5 C 1.53982,48.177 3.53982,49.8437 5.5,51.5C 4.20895,51.2627 3.20895,51.596 2.5,52.5C 1.5,51.8333 0.5,51.1667 -0.5,50.5C -0.5,49.1667 -0.5,47.8333 -0.5,46.5 Z"/></g>
<g><path style="opacity:1" fill="#10aae9" d="M 22.5,50.5 C 24.0418,51.3007 25.7085,51.634 27.5,51.5C 28.8062,52.4674 29.4729,53.8007 29.5,55.5C 27.8333,55.5 26.1667,55.5 24.5,55.5C 23.2318,53.953 21.5652,52.953 19.5,52.5C 19.8212,50.9519 20.8212,50.2852 22.5,50.5 Z"/></g>
<g><path style="opacity:1" fill="#eeb133" d="M 48.5,42.5 C 48.8333,42.5 49.1667,42.5 49.5,42.5C 49.0371,45.4824 48.7038,48.4824 48.5,51.5C 47.8333,51.8333 47.1667,52.1667 46.5,52.5C 46.6741,50.139 47.0074,47.8056 47.5,45.5C 48.404,44.791 48.7373,43.791 48.5,42.5 Z"/></g>
<g><path style="opacity:1" fill="#f3c648" d="M 61.5,50.5 C 61.8333,50.5 62.1667,50.5 62.5,50.5C 60.9236,51.1429 59.5903,52.1429 58.5,53.5C 57.791,54.404 56.791,54.7373 55.5,54.5C 54.5,54.5 53.5,54.5 52.5,54.5C 52.5,53.5 52.5,52.5 52.5,51.5C 55.5448,51.4921 58.5448,51.1587 61.5,50.5 Z"/></g>
<g><path style="opacity:0.784" fill="#85d4ed" d="M 16.5,52.5 C 17.5,52.5 18.5,52.5 19.5,52.5C 21.5652,52.953 23.2318,53.953 24.5,55.5C 21.6027,54.871 18.936,53.871 16.5,52.5 Z"/></g>
<g><path style="opacity:0.133" fill="#faedcd" d="M 46.5,44.5 C 46.5,45.1667 46.8333,45.5 47.5,45.5C 47.0074,47.8056 46.6741,50.139 46.5,52.5C 45.5489,53.9187 45.2155,55.5853 45.5,57.5C 44.2843,55.1526 44.2843,52.6526 45.5,50C 45.3333,49.5 45.1667,49 45,48.5C 44.7216,49.4158 44.2216,50.0825 43.5,50.5C 43.5,49.8333 43.5,49.1667 43.5,48.5C 43.5,48.1667 43.5,47.8333 43.5,47.5C 44.1667,47.1667 44.8333,46.8333 45.5,46.5C 45.3284,45.5084 45.6618,44.8417 46.5,44.5 Z"/></g>
<g><path style="opacity:1" fill="#f4bb1d" d="M 48.5,51.5 C 49.5,51.5 50.5,51.5 51.5,51.5C 51.8333,51.5 52.1667,51.5 52.5,51.5C 52.5,52.5 52.5,53.5 52.5,54.5C 51.609,55.1098 50.609,55.4431 49.5,55.5C 48.5,55.5 47.5,55.5 46.5,55.5C 46.5,54.5 46.5,53.5 46.5,52.5C 47.1667,52.1667 47.8333,51.8333 48.5,51.5 Z"/></g>
<g><path style="opacity:0.678" fill="#f6d5a0" d="M 74.5,49.5 C 73.4726,51.1942 72.1392,52.5275 70.5,53.5C 66.2808,55.24 61.9475,56.5733 57.5,57.5C 62.9178,54.4635 68.5844,51.7968 74.5,49.5 Z"/></g>
<g><path style="opacity:0.039" fill="#f6d4a0" d="M 5.5,51.5 C 10.4898,52.9346 15.1565,54.9346 19.5,57.5C 19.1667,57.5 18.8333,57.5 18.5,57.5C 13.4776,56.8198 9.14426,54.8198 5.5,51.5 Z"/></g>
<g><path style="opacity:1" fill="#eaa965" d="M 74.5,49.5 C 75.4916,49.3284 76.1583,49.6618 76.5,50.5C 74.0743,53.9323 71.0743,56.5989 67.5,58.5C 67.8333,57.8333 68.1667,57.1667 68.5,56.5C 69.9063,56.0269 70.573,55.0269 70.5,53.5C 72.1392,52.5275 73.4726,51.1942 74.5,49.5 Z"/></g>
<g><path style="opacity:0.008" fill="#fae7c2" d="M 3.5,53.5 C 4.5,53.8333 5.16667,54.5 5.5,55.5C 4.16667,55.5 3.5,54.8333 3.5,53.5 Z"/></g>
<g><path style="opacity:1" fill="#ee8c2c" d="M 5.5,51.5 C 9.14426,54.8198 13.4776,56.8198 18.5,57.5C 18.5,57.8333 18.5,58.1667 18.5,58.5C 17.1667,58.5 15.8333,58.5 14.5,58.5C 13.8333,58.5 13.1667,58.5 12.5,58.5C 10.0202,57.758 7.68686,56.758 5.5,55.5C 5.16667,54.5 4.5,53.8333 3.5,53.5C 2.83333,53.5 2.5,53.1667 2.5,52.5C 3.20895,51.596 4.20895,51.2627 5.5,51.5 Z"/></g>
<g><path style="opacity:0.767" fill="#dd817d" d="M 43.5,48.5 C 43.5,49.1667 43.5,49.8333 43.5,50.5C 42.9823,53.68 41.3157,56.0133 38.5,57.5C 37.2867,57.2528 36.62,56.5862 36.5,55.5C 36.5,55.1667 36.5,54.8333 36.5,54.5C 39.6982,55.6078 41.3649,54.2745 41.5,50.5C 42.1667,49.8333 42.8333,49.1667 43.5,48.5 Z"/></g>
<g><path style="opacity:0.035" fill="#93d9f0" d="M 30.5,48.5 C 30.8333,48.5 31.1667,48.5 31.5,48.5C 32.1587,51.4552 32.4921,54.4552 32.5,57.5C 30.1432,57.6633 27.8098,57.4966 25.5,57C 24.944,56.6174 24.6107,56.1174 24.5,55.5C 26.1667,55.5 27.8333,55.5 29.5,55.5C 30.4682,53.3926 30.8016,51.0593 30.5,48.5 Z"/></g>
<g><path style="opacity:0.043" fill="#f2d36a" d="M 46.5,52.5 C 46.5,53.5 46.5,54.5 46.5,55.5C 47.5,55.5 48.5,55.5 49.5,55.5C 49.5,56.1667 49.5,56.8333 49.5,57.5C 48.1667,57.5 46.8333,57.5 45.5,57.5C 45.2155,55.5853 45.5489,53.9187 46.5,52.5 Z"/></g>
<g><path style="opacity:0.004" fill="#fcf5c4" d="M 52.5,54.5 C 53.5,54.5 54.5,54.5 55.5,54.5C 53.5439,55.4918 51.5439,56.4918 49.5,57.5C 49.5,56.8333 49.5,56.1667 49.5,55.5C 50.609,55.4431 51.609,55.1098 52.5,54.5 Z"/></g>
<g><path style="opacity:0.988" fill="#f2922a" d="M 70.5,53.5 C 70.573,55.0269 69.9063,56.0269 68.5,56.5C 65.6733,57.1084 63.0067,58.1084 60.5,59.5C 59.8333,59.5 59.1667,59.5 58.5,59.5C 57.1667,59.5 55.8333,59.5 54.5,59.5C 55.5,58.8333 56.5,58.1667 57.5,57.5C 61.9475,56.5733 66.2808,55.24 70.5,53.5 Z"/></g>
<g><path style="opacity:1" fill="#e26326" d="M 68.5,56.5 C 68.1667,57.1667 67.8333,57.8333 67.5,58.5C 65.0462,59.2271 62.7128,60.2271 60.5,61.5C 60.5,60.8333 60.5,60.1667 60.5,59.5C 63.0067,58.1084 65.6733,57.1084 68.5,56.5 Z"/></g>
<g><path style="opacity:0.396" fill="#f8d7a4" d="M 57.5,57.5 C 56.5,58.1667 55.5,58.8333 54.5,59.5C 51.1667,59.8333 47.8333,60.1667 44.5,60.5C 40.2984,60.8168 36.2984,60.4834 32.5,59.5C 40.9243,59.7862 49.2576,59.1196 57.5,57.5 Z"/></g>
<g><path style="opacity:0.29" fill="#f1be79" d="M 18.5,58.5 C 18.5,58.1667 18.5,57.8333 18.5,57.5C 18.8333,57.5 19.1667,57.5 19.5,57.5C 23.814,58.2745 28.1474,58.9412 32.5,59.5C 36.2984,60.4834 40.2984,60.8168 44.5,60.5C 44.5,60.8333 44.5,61.1667 44.5,61.5C 35.626,61.9157 26.9594,60.9157 18.5,58.5 Z"/></g>
<g><path style="opacity:0.608" fill="#eba88b" d="M 5.5,55.5 C 7.68686,56.758 10.0202,57.758 12.5,58.5C 15.9492,60.8741 19.6159,62.8741 23.5,64.5C 16.3085,63.5712 10.3085,60.5712 5.5,55.5 Z"/></g>
<g><path style="opacity:1" fill="#f28a1f" d="M 14.5,58.5 C 15.8333,58.5 17.1667,58.5 18.5,58.5C 26.9594,60.9157 35.626,61.9157 44.5,61.5C 39.3595,62.4881 34.0262,62.8214 28.5,62.5C 23.3784,62.3898 18.7118,61.0564 14.5,58.5 Z"/></g>
<g><path style="opacity:1" fill="#f39128" d="M 54.5,59.5 C 55.8333,59.5 57.1667,59.5 58.5,59.5C 56.0948,60.7682 53.4282,61.4349 50.5,61.5C 48.5,61.5 46.5,61.5 44.5,61.5C 44.5,61.1667 44.5,60.8333 44.5,60.5C 47.8333,60.1667 51.1667,59.8333 54.5,59.5 Z"/></g>
<g><path style="opacity:1" fill="#ea5e22" d="M 58.5,59.5 C 59.1667,59.5 59.8333,59.5 60.5,59.5C 60.5,60.1667 60.5,60.8333 60.5,61.5C 58.2543,62.4552 55.921,63.1218 53.5,63.5C 51.1667,63.5 48.8333,63.5 46.5,63.5C 47.8333,62.8333 49.1667,62.1667 50.5,61.5C 53.4282,61.4349 56.0948,60.7682 58.5,59.5 Z"/></g>
<g><path style="opacity:1" fill="#e85723" d="M 12.5,58.5 C 13.1667,58.5 13.8333,58.5 14.5,58.5C 18.7118,61.0564 23.3784,62.3898 28.5,62.5C 33.6405,63.4881 38.9738,63.8214 44.5,63.5C 39.0247,64.4889 33.358,64.8222 27.5,64.5C 26.1667,64.5 24.8333,64.5 23.5,64.5C 19.6159,62.8741 15.9492,60.8741 12.5,58.5 Z"/></g>
<g><path style="opacity:1" fill="#f67f24" d="M 44.5,61.5 C 46.5,61.5 48.5,61.5 50.5,61.5C 49.1667,62.1667 47.8333,62.8333 46.5,63.5C 45.8333,63.5 45.1667,63.5 44.5,63.5C 38.9738,63.8214 33.6405,63.4881 28.5,62.5C 34.0262,62.8214 39.3595,62.4881 44.5,61.5 Z"/></g>
<g><path style="opacity:0.482" fill="#f0b29b" d="M 67.5,58.5 C 63.6036,62.1104 58.9369,64.1104 53.5,64.5C 53.5,64.1667 53.5,63.8333 53.5,63.5C 55.921,63.1218 58.2543,62.4552 60.5,61.5C 62.7128,60.2271 65.0462,59.2271 67.5,58.5 Z"/></g>
<g><path style="opacity:0.969" fill="#e7592d" d="M 44.5,63.5 C 45.1667,63.5 45.8333,63.5 46.5,63.5C 48.8333,63.5 51.1667,63.5 53.5,63.5C 53.5,63.8333 53.5,64.1667 53.5,64.5C 44.6807,65.6892 36.0141,65.6892 27.5,64.5C 33.358,64.8222 39.0247,64.4889 44.5,63.5 Z"/></g>
<g><path style="opacity:0.763" fill="#eaa288" d="M 23.5,64.5 C 24.8333,64.5 26.1667,64.5 27.5,64.5C 36.0141,65.6892 44.6807,65.6892 53.5,64.5C 48.7491,66.0621 43.7491,67.0621 38.5,67.5C 33.226,67.1486 28.226,66.1486 23.5,64.5 Z"/></g>
</svg>
