<?xml version="1.0" encoding="UTF-8"?>
<!DOCTYPE svg PUBLIC "-//W3C//DTD SVG 1.1//EN" "http://www.w3.org/Graphics/SVG/1.1/DTD/svg11.dtd">
<svg xmlns="http://www.w3.org/2000/svg" version="1.1" width="254px" height="87px" style="shape-rendering:geometricPrecision; text-rendering:geometricPrecision; image-rendering:optimizeQuality; fill-rule:evenodd; clip-rule:evenodd" xmlns:xlink="http://www.w3.org/1999/xlink">
<g><path style="opacity:0.576" fill="#fbf7cf" d="M 44.5,24.5 C 44.4142,23.5041 44.7476,22.6708 45.5,22C 43.4708,21.3189 41.4708,20.9856 39.5,21C 39.1667,21.3333 38.8333,21.6667 38.5,22C 39.7893,23.8022 41.4559,24.9688 43.5,25.5C 43.6309,26.3764 43.2975,27.0431 42.5,27.5C 40.3501,25.8509 38.3501,24.0176 36.5,22C 40.4335,15.9203 44.1002,16.0869 47.5,22.5C 46.6431,23.4252 45.6431,24.0919 44.5,24.5 Z"/></g>
<g><path style="opacity:1" fill="#f7ed8c" d="M 44.5,24.5 C 44.5,25.1667 44.1667,25.5 43.5,25.5C 41.4559,24.9688 39.7893,23.8022 38.5,22C 38.8333,21.6667 39.1667,21.3333 39.5,21C 41.4708,20.9856 43.4708,21.3189 45.5,22C 44.7476,22.6708 44.4142,23.5041 44.5,24.5 Z"/></g>
<g><path style="opacity:0.927" fill="#fec151" d="M 86.5,24.5 C 89.5,24.5 92.5,24.5 95.5,24.5C 95.5,30.1667 95.5,35.8333 95.5,41.5C 101.167,41.5 106.833,41.5 112.5,41.5C 112.5,35.8333 112.5,30.1667 112.5,24.5C 115.5,24.5 118.5,24.5 121.5,24.5C 121.5,38.5 121.5,52.5 121.5,66.5C 118.5,66.5 115.5,66.5 112.5,66.5C 112.5,60.8333 112.5,55.1667 112.5,49.5C 106.833,49.5 101.167,49.5 95.5,49.5C 95.5,55.1667 95.5,60.8333 95.5,66.5C 92.5,66.5 89.5,66.5 86.5,66.5C 86.5,52.5 86.5,38.5 86.5,24.5 Z"/></g>
<g><path style="opacity:0.919" fill="#fec151" d="M 147.5,24.5 C 151.226,24.1774 154.893,24.5108 158.5,25.5C 163.603,38.9781 168.603,52.4781 173.5,66C 170.118,66.8236 166.784,66.657 163.5,65.5C 162.786,63.1889 161.786,61.0223 160.5,59C 155.177,58.5006 149.844,58.334 144.5,58.5C 143.875,65.7926 139.875,68.2926 132.5,66C 137.601,52.1979 142.601,38.3646 147.5,24.5 Z M 152.5,35.5 C 154.575,40.5449 156.575,45.7116 158.5,51C 154.833,51.6667 151.167,51.6667 147.5,51C 149.668,45.9968 151.334,40.8302 152.5,35.5 Z"/></g>
<g><path style="opacity:0.913" fill="#fec151" d="M 184.5,24.5 C 191.841,24.3337 199.174,24.5003 206.5,25C 216.893,28.1112 221.893,35.1112 221.5,46C 221.495,56.3471 216.495,63.0137 206.5,66C 199.174,66.4997 191.841,66.6663 184.5,66.5C 184.5,52.5 184.5,38.5 184.5,24.5 Z M 193.5,32.5 C 208.831,30.9929 214.665,37.6596 211,52.5C 209.749,55.3807 207.583,57.214 204.5,58C 200.848,58.4986 197.182,58.6653 193.5,58.5C 193.5,49.8333 193.5,41.1667 193.5,32.5 Z"/></g>
<g><path style="opacity:0.911" fill="#fec151" d="M 233.5,24.5 C 236.5,24.5 239.5,24.5 242.5,24.5C 242.5,38.5 242.5,52.5 242.5,66.5C 239.5,66.5 236.5,66.5 233.5,66.5C 233.5,52.5 233.5,38.5 233.5,24.5 Z"/></g>
<g><path style="opacity:0.439" fill="#fbf9dd" d="M 26.5,32.5 C 20.7459,32.5996 20.2459,30.5996 25,26.5C 28.7316,28.0719 29.2316,30.0719 26.5,32.5 Z"/></g>
<g><path style="opacity:0.996" fill="#f8ee9b" d="M 26.5,32.5 C 23.1394,31.7968 22.8061,30.4635 25.5,28.5C 27.6424,29.4371 27.9757,30.7704 26.5,32.5 Z"/></g>
<g><path style="opacity:0.584" fill="#edb4aa" d="M 39.5,31.5 C 40.2739,30.8529 41.2739,30.5195 42.5,30.5C 44.3545,30.3402 45.6879,31.0069 46.5,32.5C 44.2362,31.7814 41.9029,31.448 39.5,31.5 Z"/></g>
<g><path style="opacity:0.941" fill="#f8f2b6" d="M 57.5,27.5 C 59.9582,27.2275 61.6249,28.2275 62.5,30.5C 60.5,34.5 58.5,34.5 56.5,30.5C 57.1272,29.5832 57.4606,28.5832 57.5,27.5 Z"/></g>
<g><path style="opacity:1" fill="#e14133" d="M 39.5,31.5 C 41.9029,31.448 44.2362,31.7814 46.5,32.5C 46.5,34.8333 46.5,37.1667 46.5,39.5C 43.1614,42.312 39.9947,41.9787 37,38.5C 35.9126,35.3861 36.746,33.0528 39.5,31.5 Z"/></g>
<g><path style="opacity:0.82" fill="#e5a7a9" d="M 32.5,35.5 C 31.596,36.209 31.2627,37.209 31.5,38.5C 31.1667,38.5 30.8333,38.5 30.5,38.5C 30.238,37.0222 30.5713,35.6888 31.5,34.5C 32.1067,34.6236 32.44,34.9569 32.5,35.5 Z"/></g>
<g><path style="opacity:0.878" fill="#e89c93" d="M 46.5,32.5 C 48.8907,34.7642 48.8907,37.0976 46.5,39.5C 46.5,37.1667 46.5,34.8333 46.5,32.5 Z"/></g>
<g><path style="opacity:0.035" fill="#f2c9ba" d="M 55.5,37.5 C 55.5,37.8333 55.5,38.1667 55.5,38.5C 55.5,39.1667 55.1667,39.5 54.5,39.5C 54.5,38.8333 54.1667,38.5 53.5,38.5C 53.5912,36.3023 52.9245,35.9689 51.5,37.5C 52.8035,33.5177 54.1368,33.5177 55.5,37.5 Z"/></g>
<g><path style="opacity:1" fill="#e36956" d="M 53.5,38.5 C 53.5,39.1667 53.5,39.8333 53.5,40.5C 52.8333,40.5 52.5,40.8333 52.5,41.5C 52.1667,41.5 51.8333,41.5 51.5,41.5C 51.44,40.9569 51.1067,40.6236 50.5,40.5C 49.3777,41.6302 48.0443,42.2969 46.5,42.5C 47.8333,40.5 49.5,38.8333 51.5,37.5C 52.9245,35.9689 53.5912,36.3023 53.5,38.5 Z"/></g>
<g><path style="opacity:0.024" fill="#f4dddc" d="M 31.5,38.5 C 32.404,39.209 32.7373,40.209 32.5,41.5C 32.1667,41.5 31.8333,41.5 31.5,41.5C 30.8333,41.5 30.5,41.1667 30.5,40.5C 31.3382,40.1583 31.6716,39.4916 31.5,38.5 Z"/></g>
<g><path style="opacity:0.439" fill="#f9e9ae" d="M 61.5,40.5 C 59.3498,42.9225 59.0165,45.5891 60.5,48.5C 59.8333,48.5 59.5,48.8333 59.5,49.5C 58.5416,49.0472 57.7083,48.3805 57,47.5C 56.8195,44.3054 56.3195,41.3054 55.5,38.5C 55.5,38.1667 55.5,37.8333 55.5,37.5C 56.209,36.596 57.209,36.2627 58.5,36.5C 57.6239,39.7989 57.4572,43.1322 58,46.5C 58.3333,44.8333 58.6667,43.1667 59,41.5C 59.6708,40.7476 60.5041,40.4142 61.5,40.5 Z"/></g>
<g><path style="opacity:0.933" fill="#f8f3c2" d="M 10.5,39.5 C 14.0164,41.1183 14.1831,42.785 11,44.5C 7.927,43.2516 7.76033,41.585 10.5,39.5 Z"/></g>
<g><path style="opacity:0.533" fill="#f9f3c4" d="M 73.5,39.5 C 77.0164,41.1183 77.1831,42.785 74,44.5C 70.927,43.2516 70.7603,41.585 73.5,39.5 Z"/></g>
<g><path style="opacity:1" fill="#38a5db" d="M 24.5,49.5 C 16.7807,50.1299 14.7807,47.1299 18.5,40.5C 25.9651,39.6487 27.9651,42.6487 24.5,49.5 Z"/></g>
<g><path style="opacity:0.216" fill="#d8e0e5" d="M 32.5,41.5 C 33.3382,41.8417 33.6716,42.5084 33.5,43.5C 32.8333,43.5 32.5,43.8333 32.5,44.5C 31.6618,44.1583 31.3284,43.4916 31.5,42.5C 32.1667,42.5 32.5,42.1667 32.5,41.5 Z"/></g>
<g><path style="opacity:0.349" fill="#fadec2" d="M 51.5,41.5 C 51.8333,41.5 52.1667,41.5 52.5,41.5C 52.5,42.1667 52.8333,42.5 53.5,42.5C 53.6716,43.4916 53.3382,44.1583 52.5,44.5C 52.5,43.8333 52.1667,43.5 51.5,43.5C 51.5,42.8333 51.5,42.1667 51.5,41.5 Z"/></g>
<g><path style="opacity:0.824" fill="#f6d491" d="M 66.5,40.5 C 67.9931,41.3121 68.6598,42.6455 68.5,44.5C 68.4805,45.7261 68.1471,46.7261 67.5,47.5C 67.552,45.0971 67.2186,42.7638 66.5,40.5 Z"/></g>
<g><path style="opacity:1" fill="#f3b633" d="M 66.5,40.5 C 67.2186,42.7638 67.552,45.0971 67.5,47.5C 66.5,47.8333 65.8333,48.5 65.5,49.5C 65.1667,49.5 64.8333,49.5 64.5,49.5C 63.8333,49.5 63.1667,49.5 62.5,49.5C 62.1667,49.5 61.8333,49.5 61.5,49.5C 61.5,48.8333 61.1667,48.5 60.5,48.5C 59.0165,45.5891 59.3498,42.9225 61.5,40.5C 63.1667,39.1667 64.8333,39.1667 66.5,40.5 Z"/></g>
<g><path style="opacity:1" fill="#e24738" d="M 32.5,35.5 C 34.137,37.4752 35.8036,39.4752 37.5,41.5C 37.8212,43.0481 38.8212,43.7148 40.5,43.5C 42.5648,43.4828 44.5648,43.1495 46.5,42.5C 48.0443,42.2969 49.3777,41.6302 50.5,40.5C 51.1067,40.6236 51.44,40.9569 51.5,41.5C 51.5,42.1667 51.5,42.8333 51.5,43.5C 51.5,44.1667 51.5,44.8333 51.5,45.5C 50.6618,45.8417 50.3284,46.5084 50.5,47.5C 49.596,48.209 49.2627,49.209 49.5,50.5C 48.6618,50.8417 48.3284,51.5084 48.5,52.5C 46.7447,54.9883 44.7447,57.3216 42.5,59.5C 40.3886,58.3954 39.0553,56.7288 38.5,54.5C 38.6716,53.5084 38.3382,52.8417 37.5,52.5C 37.1667,52.5 36.8333,52.5 36.5,52.5C 36.6716,51.5084 36.3382,50.8417 35.5,50.5C 35.5979,48.4471 34.9313,46.7804 33.5,45.5C 33.5,44.8333 33.5,44.1667 33.5,43.5C 33.6716,42.5084 33.3382,41.8417 32.5,41.5C 32.7373,40.209 32.404,39.209 31.5,38.5C 31.2627,37.209 31.596,36.209 32.5,35.5 Z"/></g>
<g><path style="opacity:0.933" fill="#e6847c" d="M 37.5,41.5 C 38.7095,41.9321 39.7095,42.5987 40.5,43.5C 38.8212,43.7148 37.8212,43.0481 37.5,41.5 Z"/></g>
<g><path style="opacity:1" fill="#6cc1e7" d="M 29.5,38.5 C 28.6762,42.3123 28.1762,46.3123 28,50.5C 27.0138,51.1712 25.8471,51.1712 24.5,50.5C 24.5,50.1667 24.5,49.8333 24.5,49.5C 25.7498,49.4226 26.5831,48.756 27,47.5C 27.7886,43.9085 27.6219,40.4085 26.5,37C 28.1575,36.2748 29.1575,36.7748 29.5,38.5 Z"/></g>
<g><path style="opacity:0.255" fill="#faedbc" d="M 67.5,47.5 C 68.9699,48.9779 70.6366,50.3112 72.5,51.5C 70.5128,53.3274 68.1795,54.3274 65.5,54.5C 66.6002,53.4415 67.9336,52.6082 69.5,52C 66.5,51.6667 63.5,51.3333 60.5,51C 59.944,50.6174 59.6107,50.1174 59.5,49.5C 60.1667,49.5 60.5,49.1667 60.5,48.5C 61.1667,48.5 61.5,48.8333 61.5,49.5C 61.8333,50.8333 62.1667,50.8333 62.5,49.5C 63.1667,49.5 63.8333,49.5 64.5,49.5C 65.8493,50.6441 66.1826,50.6441 65.5,49.5C 65.8333,48.5 66.5,47.8333 67.5,47.5 Z"/></g>
<g><path style="opacity:1" fill="#7cc7e5" d="M 24.5,50.5 C 22.6309,51.1646 20.6309,51.8313 18.5,52.5C 20.9009,53.3576 22.9009,54.691 24.5,56.5C 10.3912,52.4726 10.3912,50.4726 24.5,50.5 Z"/></g>
<g><path style="opacity:1" fill="#f2b523" d="M 55.5,38.5 C 56.3195,41.3054 56.8195,44.3054 57,47.5C 57.7083,48.3805 58.5416,49.0472 59.5,49.5C 59.6107,50.1174 59.944,50.6174 60.5,51C 63.5,51.3333 66.5,51.6667 69.5,52C 67.9336,52.6082 66.6002,53.4415 65.5,54.5C 65.1583,55.3382 64.4916,55.6716 63.5,55.5C 61.2143,55.595 59.2143,56.2616 57.5,57.5C 55.1667,57.5 52.8333,57.5 50.5,57.5C 50.572,53.3735 51.2387,49.3735 52.5,45.5C 52.5,45.1667 52.5,44.8333 52.5,44.5C 53.3382,44.1583 53.6716,43.4916 53.5,42.5C 53.5,41.8333 53.5,41.1667 53.5,40.5C 54.1667,40.5 54.5,40.1667 54.5,39.5C 55.1667,39.5 55.5,39.1667 55.5,38.5 Z"/></g>
<g><path style="opacity:1" fill="#27a7e2" d="M 29.5,38.5 C 29.8333,38.5 30.1667,38.5 30.5,38.5C 30.5,39.1667 30.5,39.8333 30.5,40.5C 30.5,41.1667 30.8333,41.5 31.5,41.5C 31.5,41.8333 31.5,42.1667 31.5,42.5C 31.3284,43.4916 31.6618,44.1583 32.5,44.5C 32.5,45.1667 32.8333,45.5 33.5,45.5C 33.4021,47.5529 34.0687,49.2196 35.5,50.5C 35.5,51.1667 35.5,51.8333 35.5,52.5C 35.5,53.5 35.5,54.5 35.5,55.5C 35.5,56.5 35.5,57.5 35.5,58.5C 33.5,58.5 31.5,58.5 29.5,58.5C 27.597,58.2041 25.9303,57.5375 24.5,56.5C 22.9009,54.691 20.9009,53.3576 18.5,52.5C 20.6309,51.8313 22.6309,51.1646 24.5,50.5C 25.8471,51.1712 27.0138,51.1712 28,50.5C 28.1762,46.3123 28.6762,42.3123 29.5,38.5 Z"/></g>
<g><path style="opacity:0.01" fill="#f4f6f6" d="M 35.5,52.5 C 35.8333,52.5 36.1667,52.5 36.5,52.5C 36.8333,53.8333 37.1667,53.8333 37.5,52.5C 38.3382,52.8417 38.6716,53.5084 38.5,54.5C 37.8333,55.8333 37.1667,57.1667 36.5,58.5C 36.7373,57.209 36.404,56.209 35.5,55.5C 35.5,54.5 35.5,53.5 35.5,52.5 Z"/></g>
<g><path style="opacity:0.929" fill="#f1ce9d" d="M 74.5,56.5 C 74.631,55.7611 74.4643,55.0944 74,54.5C 73.3292,55.2524 72.4959,55.5858 71.5,55.5C 73.7887,53.552 76.122,51.552 78.5,49.5C 79.0836,52.6486 77.7502,54.9819 74.5,56.5 Z"/></g>
<g><path style="opacity:0.929" fill="#f3cd9a" d="M 13.5,55.5 C 12.1667,55.5 11.5,56.1667 11.5,57.5C 8.80365,55.8008 6.80365,53.4674 5.5,50.5C 6.00161,49.479 6.66828,49.3123 7.5,50C 9.3962,52.068 11.3962,53.9013 13.5,55.5 Z"/></g>
<g><path style="opacity:0.608" fill="#f7e8b0" d="M 48.5,52.5 C 48.8333,52.5 49.1667,52.5 49.5,52.5C 49.5,54.8333 49.5,57.1667 49.5,59.5C 48.5028,59.5299 47.8361,59.0299 47.5,58C 48.2335,56.2341 48.5668,54.4008 48.5,52.5 Z"/></g>
<g><path style="opacity:0.016" fill="#fcf4ca" d="M 63.5,55.5 C 61.8984,57.0739 59.8984,57.7406 57.5,57.5C 59.2143,56.2616 61.2143,55.595 63.5,55.5 Z"/></g>
<g><path style="opacity:1" fill="#f5ce6b" d="M 51.5,45.5 C 51.8333,45.5 52.1667,45.5 52.5,45.5C 51.2387,49.3735 50.572,53.3735 50.5,57.5C 52.8333,57.5 55.1667,57.5 57.5,57.5C 55.1617,59.0395 52.4951,59.7062 49.5,59.5C 49.5,57.1667 49.5,54.8333 49.5,52.5C 49.5,51.8333 49.5,51.1667 49.5,50.5C 50.404,49.791 50.7373,48.791 50.5,47.5C 51.3382,47.1583 51.6716,46.4916 51.5,45.5 Z"/></g>
<g><path style="opacity:1" fill="#efa965" d="M 74.5,56.5 C 72.1997,58.984 69.5331,60.984 66.5,62.5C 66.8333,61.8333 67.1667,61.1667 67.5,60.5C 67.9175,59.7784 68.5842,59.2784 69.5,59C 69,58.8333 68.5,58.6667 68,58.5C 65.2764,59.6868 62.4431,60.3535 59.5,60.5C 63.2613,58.4625 67.2613,56.7958 71.5,55.5C 72.4959,55.5858 73.3292,55.2524 74,54.5C 74.4643,55.0944 74.631,55.7611 74.5,56.5 Z"/></g>
<g><path style="opacity:1" fill="#f29f56" d="M 13.5,55.5 C 17.5763,57.1861 21.5763,58.8528 25.5,60.5C 24.209,60.2627 23.209,60.596 22.5,61.5C 20.0065,61.1307 19.3398,61.7973 20.5,63.5C 16.9754,62.2411 13.9754,60.2411 11.5,57.5C 11.5,56.1667 12.1667,55.5 13.5,55.5 Z"/></g>
<g><path style="opacity:0.447" fill="#8cd3ea" d="M 35.5,55.5 C 36.404,56.209 36.7373,57.209 36.5,58.5C 36.2172,59.2891 35.7172,59.9558 35,60.5C 33.0517,59.8906 31.2184,59.224 29.5,58.5C 31.5,58.5 33.5,58.5 35.5,58.5C 35.5,57.5 35.5,56.5 35.5,55.5 Z"/></g>
<g><path style="opacity:1" fill="#f38e24" d="M 67.5,60.5 C 54.5771,65.4682 41.2437,66.6349 27.5,64C 25.8068,63.1534 24.1401,62.3201 22.5,61.5C 23.209,60.596 24.209,60.2627 25.5,60.5C 30.7777,62.9303 36.4444,63.9303 42.5,63.5C 45.8333,63.3333 49.1667,63.1667 52.5,63C 54.8516,62.7599 56.8516,61.9265 58.5,60.5C 58.8333,60.5 59.1667,60.5 59.5,60.5C 62.4431,60.3535 65.2764,59.6868 68,58.5C 68.5,58.6667 69,58.8333 69.5,59C 68.5842,59.2784 67.9175,59.7784 67.5,60.5 Z"/></g>
<g><path style="opacity:0.333" fill="#f8d49f" d="M 25.5,60.5 C 36.5136,63.0796 47.5136,63.0796 58.5,60.5C 56.8516,61.9265 54.8516,62.7599 52.5,63C 49.1667,63.1667 45.8333,63.3333 42.5,63.5C 36.4444,63.9303 30.7777,62.9303 25.5,60.5 Z"/></g>
<g><path style="opacity:0.655" fill="#eeaa91" d="M 24.5,65.5 C 27.1522,65.4095 29.4855,66.0762 31.5,67.5C 28.8478,67.5905 26.5145,66.9238 24.5,65.5 Z"/></g>
<g><path style="opacity:1" fill="#ee7244" d="M 67.5,60.5 C 67.1667,61.1667 66.8333,61.8333 66.5,62.5C 59.2456,66.9847 51.2456,69.3181 42.5,69.5C 38.669,68.9728 35.0024,68.3061 31.5,67.5C 29.4855,66.0762 27.1522,65.4095 24.5,65.5C 22.847,65.3404 21.5137,64.6737 20.5,63.5C 19.3398,61.7973 20.0065,61.1307 22.5,61.5C 24.1401,62.3201 25.8068,63.1534 27.5,64C 41.2437,66.6349 54.5771,65.4682 67.5,60.5 Z"/></g>
</svg>
